<mxfile host="app.diagrams.net" modified="2022-08-27T04:14:13.981Z" agent="5.0 (Windows NT 10.0; Win64; x64) AppleWebKit/537.36 (KHTML, like Gecko) Chrome/102.0.0.0 Safari/537.36" etag="d0sP9zY83vsak27o4OqN" version="20.2.7" type="github">
  <diagram id="C5RBs43oDa-KdzZeNtuy" name="Page-1">
    <mxGraphModel dx="541" dy="922" grid="1" gridSize="10" guides="1" tooltips="1" connect="1" arrows="1" fold="1" page="1" pageScale="1" pageWidth="827" pageHeight="1169" math="0" shadow="0">
      <root>
        <mxCell id="WIyWlLk6GJQsqaUBKTNV-0" />
        <mxCell id="WIyWlLk6GJQsqaUBKTNV-1" parent="WIyWlLk6GJQsqaUBKTNV-0" />
        <mxCell id="WIyWlLk6GJQsqaUBKTNV-2" value="" style="rounded=0;html=1;jettySize=auto;orthogonalLoop=1;fontSize=11;endArrow=block;endFill=0;endSize=8;strokeWidth=1;shadow=0;labelBackgroundColor=none;edgeStyle=orthogonalEdgeStyle;" parent="WIyWlLk6GJQsqaUBKTNV-1" source="WIyWlLk6GJQsqaUBKTNV-3" target="WIyWlLk6GJQsqaUBKTNV-6" edge="1">
          <mxGeometry relative="1" as="geometry" />
        </mxCell>
        <mxCell id="WIyWlLk6GJQsqaUBKTNV-3" value="设置预设参数，累计时间从0开始" style="rounded=1;whiteSpace=wrap;html=1;fontSize=12;glass=0;strokeWidth=1;shadow=0;" parent="WIyWlLk6GJQsqaUBKTNV-1" vertex="1">
          <mxGeometry x="160" y="80" width="120" height="40" as="geometry" />
        </mxCell>
        <mxCell id="FxE3N5X2bvDYKzc1gpaS-12" value="否" style="edgeStyle=orthogonalEdgeStyle;rounded=0;orthogonalLoop=1;jettySize=auto;html=1;" edge="1" parent="WIyWlLk6GJQsqaUBKTNV-1" source="WIyWlLk6GJQsqaUBKTNV-6" target="FxE3N5X2bvDYKzc1gpaS-11">
          <mxGeometry relative="1" as="geometry" />
        </mxCell>
        <mxCell id="FxE3N5X2bvDYKzc1gpaS-46" style="edgeStyle=orthogonalEdgeStyle;rounded=0;orthogonalLoop=1;jettySize=auto;html=1;endArrow=classic;endFill=1;" edge="1" parent="WIyWlLk6GJQsqaUBKTNV-1" target="WIyWlLk6GJQsqaUBKTNV-6">
          <mxGeometry relative="1" as="geometry">
            <mxPoint x="500" y="210" as="sourcePoint" />
          </mxGeometry>
        </mxCell>
        <mxCell id="FxE3N5X2bvDYKzc1gpaS-50" value="是" style="edgeStyle=orthogonalEdgeStyle;rounded=0;orthogonalLoop=1;jettySize=auto;html=1;endArrow=none;endFill=0;verticalAlign=middle;" edge="1" parent="WIyWlLk6GJQsqaUBKTNV-1" source="WIyWlLk6GJQsqaUBKTNV-6">
          <mxGeometry relative="1" as="geometry">
            <mxPoint x="60" y="960" as="targetPoint" />
          </mxGeometry>
        </mxCell>
        <mxCell id="WIyWlLk6GJQsqaUBKTNV-6" value="累计时间是&lt;br&gt;否超过8小时" style="rhombus;whiteSpace=wrap;html=1;shadow=0;fontFamily=Helvetica;fontSize=12;align=center;strokeWidth=1;spacing=6;spacingTop=-4;" parent="WIyWlLk6GJQsqaUBKTNV-1" vertex="1">
          <mxGeometry x="170" y="170" width="100" height="80" as="geometry" />
        </mxCell>
        <mxCell id="FxE3N5X2bvDYKzc1gpaS-14" value="" style="edgeStyle=orthogonalEdgeStyle;rounded=0;orthogonalLoop=1;jettySize=auto;html=1;" edge="1" parent="WIyWlLk6GJQsqaUBKTNV-1" source="FxE3N5X2bvDYKzc1gpaS-11" target="FxE3N5X2bvDYKzc1gpaS-13">
          <mxGeometry relative="1" as="geometry" />
        </mxCell>
        <mxCell id="FxE3N5X2bvDYKzc1gpaS-11" value="分别计算RGV当前位置到8太CNC的预计完成作业时间" style="rounded=1;whiteSpace=wrap;html=1;shadow=0;strokeWidth=1;spacing=6;spacingTop=-4;" vertex="1" parent="WIyWlLk6GJQsqaUBKTNV-1">
          <mxGeometry x="160" y="300" width="120" height="60" as="geometry" />
        </mxCell>
        <mxCell id="FxE3N5X2bvDYKzc1gpaS-20" value="" style="edgeStyle=orthogonalEdgeStyle;orthogonalLoop=1;jettySize=auto;html=1;fontFamily=Helvetica;fontSize=11;endArrow=classic;" edge="1" parent="WIyWlLk6GJQsqaUBKTNV-1" source="FxE3N5X2bvDYKzc1gpaS-13" target="FxE3N5X2bvDYKzc1gpaS-19">
          <mxGeometry relative="1" as="geometry" />
        </mxCell>
        <mxCell id="FxE3N5X2bvDYKzc1gpaS-13" value="预计完成作业时间最少的方案为最佳的方案" style="rounded=1;whiteSpace=wrap;html=1;shadow=0;strokeWidth=1;spacing=6;spacingTop=-4;" vertex="1" parent="WIyWlLk6GJQsqaUBKTNV-1">
          <mxGeometry x="160" y="400" width="120" height="60" as="geometry" />
        </mxCell>
        <mxCell id="FxE3N5X2bvDYKzc1gpaS-28" value="" style="edgeStyle=orthogonalEdgeStyle;rounded=0;orthogonalLoop=1;jettySize=auto;html=1;" edge="1" parent="WIyWlLk6GJQsqaUBKTNV-1" source="FxE3N5X2bvDYKzc1gpaS-19" target="FxE3N5X2bvDYKzc1gpaS-27">
          <mxGeometry relative="1" as="geometry" />
        </mxCell>
        <mxCell id="FxE3N5X2bvDYKzc1gpaS-19" value="根据最佳方案，RGV移动至指定位置并等待CNC发出信号" style="rounded=1;whiteSpace=wrap;html=1;shadow=0;strokeWidth=1;spacing=6;spacingTop=-4;" vertex="1" parent="WIyWlLk6GJQsqaUBKTNV-1">
          <mxGeometry x="160" y="500" width="120" height="50" as="geometry" />
        </mxCell>
        <mxCell id="FxE3N5X2bvDYKzc1gpaS-30" value="是" style="edgeStyle=orthogonalEdgeStyle;rounded=0;orthogonalLoop=1;jettySize=auto;html=1;" edge="1" parent="WIyWlLk6GJQsqaUBKTNV-1" source="FxE3N5X2bvDYKzc1gpaS-27" target="FxE3N5X2bvDYKzc1gpaS-29">
          <mxGeometry relative="1" as="geometry" />
        </mxCell>
        <mxCell id="FxE3N5X2bvDYKzc1gpaS-31" value="否" style="edgeStyle=orthogonalEdgeStyle;rounded=0;orthogonalLoop=1;jettySize=auto;html=1;entryX=0.5;entryY=0;entryDx=0;entryDy=0;" edge="1" parent="WIyWlLk6GJQsqaUBKTNV-1" source="FxE3N5X2bvDYKzc1gpaS-27" target="FxE3N5X2bvDYKzc1gpaS-32">
          <mxGeometry relative="1" as="geometry">
            <mxPoint x="380" y="700" as="targetPoint" />
          </mxGeometry>
        </mxCell>
        <mxCell id="FxE3N5X2bvDYKzc1gpaS-27" value="此CNC是否已有物料" style="rhombus;whiteSpace=wrap;html=1;" vertex="1" parent="WIyWlLk6GJQsqaUBKTNV-1">
          <mxGeometry x="155" y="585" width="130" height="80" as="geometry" />
        </mxCell>
        <mxCell id="FxE3N5X2bvDYKzc1gpaS-39" value="" style="edgeStyle=orthogonalEdgeStyle;rounded=0;orthogonalLoop=1;jettySize=auto;html=1;" edge="1" parent="WIyWlLk6GJQsqaUBKTNV-1" source="FxE3N5X2bvDYKzc1gpaS-29" target="FxE3N5X2bvDYKzc1gpaS-38">
          <mxGeometry relative="1" as="geometry" />
        </mxCell>
        <mxCell id="FxE3N5X2bvDYKzc1gpaS-29" value="RGV完成上下料作业，开始清洗作业" style="rounded=1;whiteSpace=wrap;html=1;" vertex="1" parent="WIyWlLk6GJQsqaUBKTNV-1">
          <mxGeometry x="160" y="710" width="120" height="60" as="geometry" />
        </mxCell>
        <mxCell id="FxE3N5X2bvDYKzc1gpaS-32" value="RGV完成上料作业" style="rounded=1;whiteSpace=wrap;html=1;" vertex="1" parent="WIyWlLk6GJQsqaUBKTNV-1">
          <mxGeometry x="310" y="710" width="120" height="60" as="geometry" />
        </mxCell>
        <mxCell id="FxE3N5X2bvDYKzc1gpaS-43" style="edgeStyle=orthogonalEdgeStyle;rounded=0;orthogonalLoop=1;jettySize=auto;html=1;endArrow=none;endFill=0;" edge="1" parent="WIyWlLk6GJQsqaUBKTNV-1" source="FxE3N5X2bvDYKzc1gpaS-38">
          <mxGeometry relative="1" as="geometry">
            <mxPoint x="500" y="210" as="targetPoint" />
          </mxGeometry>
        </mxCell>
        <mxCell id="FxE3N5X2bvDYKzc1gpaS-38" value="更新RGV位置，各CNC的剩余作业时间，累计时间加上此循环中的RGV所耗费时间" style="whiteSpace=wrap;html=1;rounded=1;" vertex="1" parent="WIyWlLk6GJQsqaUBKTNV-1">
          <mxGeometry x="155" y="820" width="130" height="60" as="geometry" />
        </mxCell>
        <mxCell id="FxE3N5X2bvDYKzc1gpaS-41" value="" style="edgeStyle=none;orthogonalLoop=1;jettySize=auto;html=1;rounded=0;" edge="1" parent="WIyWlLk6GJQsqaUBKTNV-1">
          <mxGeometry width="80" relative="1" as="geometry">
            <mxPoint x="240" y="710" as="sourcePoint" />
            <mxPoint x="320" y="710" as="targetPoint" />
            <Array as="points" />
          </mxGeometry>
        </mxCell>
        <mxCell id="FxE3N5X2bvDYKzc1gpaS-42" value="" style="edgeStyle=none;orthogonalLoop=1;jettySize=auto;html=1;rounded=0;entryX=0.654;entryY=1.033;entryDx=0;entryDy=0;entryPerimeter=0;endArrow=none;endFill=0;" edge="1" parent="WIyWlLk6GJQsqaUBKTNV-1" target="FxE3N5X2bvDYKzc1gpaS-32">
          <mxGeometry width="80" relative="1" as="geometry">
            <mxPoint x="220" y="800" as="sourcePoint" />
            <mxPoint x="410" y="800" as="targetPoint" />
            <Array as="points">
              <mxPoint x="388" y="800" />
            </Array>
          </mxGeometry>
        </mxCell>
        <mxCell id="FxE3N5X2bvDYKzc1gpaS-51" style="edgeStyle=elbowEdgeStyle;rounded=0;orthogonalLoop=1;jettySize=auto;html=1;endArrow=classic;endFill=1;" edge="1" parent="WIyWlLk6GJQsqaUBKTNV-1" target="FxE3N5X2bvDYKzc1gpaS-49">
          <mxGeometry relative="1" as="geometry">
            <mxPoint x="60" y="960" as="sourcePoint" />
          </mxGeometry>
        </mxCell>
        <mxCell id="FxE3N5X2bvDYKzc1gpaS-49" value="结束循环并输出工件加工情况" style="rounded=1;whiteSpace=wrap;html=1;" vertex="1" parent="WIyWlLk6GJQsqaUBKTNV-1">
          <mxGeometry x="155" y="930" width="120" height="60" as="geometry" />
        </mxCell>
      </root>
    </mxGraphModel>
  </diagram>
</mxfile>
